<?xml version="1.0" standalone="no"?>
<!DOCTYPE svg PUBLIC "-//W3C//DTD SVG 20010904//EN"
 "http://www.w3.org/TR/2001/REC-SVG-20010904/DTD/svg10.dtd">
<svg version="1.0" xmlns="http://www.w3.org/2000/svg"
 width="605.000000pt" height="267.000000pt" viewBox="0 0 605.000000 267.000000"
 preserveAspectRatio="xMidYMid meet">

<g transform="translate(0.000000,267.000000) scale(0.100000,-0.100000)"
fill="#000000" stroke="none">
<path d="M1309 2027 l-126 -372 -409 3 c-249 2 -405 0 -399 -6 6 -5 147 -111
315 -237 168 -125 309 -231 314 -236 10 -9 -5 -70 -45 -179 -54 -147 -199
-570 -199 -580 0 -10 46 20 317 210 68 47 170 118 228 158 l105 73 33 -23 c48
-34 297 -220 425 -317 62 -47 123 -93 135 -101 21 -14 21 -14 7 6 -14 18 -398
437 -531 577 l-55 59 -173 -122 c-94 -67 -174 -120 -176 -118 -3 2 22 78 54
169 89 249 100 205 -93 350 -92 68 -166 126 -166 129 0 3 96 4 213 2 l214 -4
43 128 c24 71 56 163 71 204 l27 75 16 -39 c9 -22 23 -64 31 -95 8 -31 30
-103 48 -161 l35 -105 228 0 c126 0 402 6 614 13 212 7 691 19 1065 27 1808
40 1884 45 905 66 -1460 31 -2304 50 -2503 57 l-198 7 -29 85 c-16 47 -56 173
-90 280 -77 244 -122 384 -124 387 -1 1 -58 -165 -127 -370z"/>
<path d="M1832 2171 c-14 -20 -34 -32 -59 -37 l-37 -7 26 -21 c31 -25 48 -57
48 -88 0 -21 4 -19 35 18 19 23 47 45 62 49 27 6 27 7 8 21 -11 9 -26 19 -33
23 -8 4 -17 22 -20 40 l-7 33 -23 -31z"/>
<path d="M950 1903 c0 -11 -7 -26 -15 -33 -20 -17 -19 -30 4 -30 10 0 31 -10
46 -22 l27 -21 -6 21 c-4 12 0 34 9 52 l16 30 -29 0 c-15 0 -33 5 -40 12 -9 9
-12 7 -12 -9z"/>
<path d="M1898 1805 c-23 -20 -25 -25 -13 -35 8 -7 15 -19 15 -26 0 -8 5 -14
10 -14 6 0 10 5 10 10 0 6 11 16 25 22 22 10 24 13 10 21 -9 5 -19 17 -23 27
-7 17 -9 17 -34 -5z"/>
<path d="M4250 1341 c-114 -35 -165 -115 -165 -261 0 -144 42 -217 143 -246
105 -31 222 -2 276 69 76 99 70 305 -12 390 -44 46 -167 70 -242 48z m155
-101 c32 -30 45 -78 45 -160 -1 -118 -48 -180 -139 -180 -80 0 -121 64 -121
187 0 124 51 188 143 180 32 -3 56 -12 72 -27z"/>
<path d="M4790 1341 c-114 -35 -165 -115 -165 -261 0 -144 42 -217 143 -246
105 -31 222 -2 276 69 76 99 70 305 -12 390 -44 46 -167 70 -242 48z m155
-101 c32 -30 45 -78 45 -160 -1 -118 -48 -180 -139 -180 -80 0 -121 64 -121
187 0 124 51 188 143 180 32 -3 56 -12 72 -27z"/>
<path d="M1805 1328 c-3 -8 -4 -121 -3 -253 l3 -240 45 0 45 0 3 102 3 102 82
3 82 3 0 35 0 35 -82 3 -83 3 0 69 0 69 88 3 87 3 0 35 0 35 -133 3 c-101 2
-134 0 -137 -10z"/>
<path d="M2285 1328 c-74 -205 -164 -483 -157 -490 5 -5 27 -8 48 -6 38 3 39
5 57 61 l19 58 95 -3 96 -3 16 -45 c23 -66 28 -70 77 -70 36 0 44 3 44 18 0
18 -152 461 -165 482 -9 15 -125 13 -130 -2z m99 -196 l35 -102 -70 0 c-38 0
-69 3 -69 7 0 13 64 202 67 199 2 -2 19 -49 37 -104z"/>
<path d="M2654 1327 c-2 -7 -3 -120 -2 -252 l3 -240 40 0 40 0 5 210 5 210 69
-200 c38 -110 73 -206 79 -213 6 -8 26 -12 51 -10 l41 3 75 210 75 210 5 -210
5 -210 40 0 40 0 0 250 0 250 -62 3 c-49 2 -66 -1 -80 -15 -10 -10 -44 -89
-77 -176 -32 -86 -61 -157 -65 -157 -3 0 -33 74 -65 165 -37 105 -65 169 -77
175 -27 15 -139 13 -145 -3z"/>
<path d="M3354 1327 c-2 -7 -3 -120 -2 -252 l3 -240 143 -3 142 -3 0 41 0 40
-95 0 -95 0 0 75 0 75 80 0 80 0 0 40 0 40 -80 0 -80 0 0 60 0 60 95 0 95 0 0
40 0 40 -140 0 c-105 0 -142 -3 -146 -13z"/>
<path d="M3745 1328 c-3 -8 -4 -121 -3 -253 l3 -240 45 0 45 0 3 102 3 102 82
3 82 3 0 35 0 35 -82 3 -83 3 0 69 0 69 88 3 87 3 0 35 0 35 -133 3 c-101 2
-134 0 -137 -10z"/>
<path d="M5140 1300 l0 -40 70 0 70 0 2 -212 3 -213 45 0 45 0 3 213 2 212 70
0 70 0 0 40 0 40 -190 0 -190 0 0 -40z"/>
</g>
</svg>
